<svg width="32" height="32" viewBox="0 0 32 32" fill="none" xmlns="http://www.w3.org/2000/svg">
<path d="M26.625 29.9375H5.375C3.82419 29.9375 2.5625 28.6758 2.5625 27.125V2.8125C2.5625 1.26169 3.82419 0 5.375 0H26.625C28.1758 0 29.4375 1.26169 29.4375 2.8125V27.125C29.4375 28.6758 28.1758 29.9375 26.625 29.9375ZM5.375 1.875C4.85806 1.875 4.4375 2.29556 4.4375 2.8125V27.125C4.4375 27.6419 4.85806 28.0625 5.375 28.0625H26.625C27.1419 28.0625 27.5625 27.6419 27.5625 27.125V2.8125C27.5625 2.29556 27.1419 1.875 26.625 1.875H5.375Z" fill="#5843BE"/>
<path d="M8 32C7.48225 32 7.0625 31.5803 7.0625 31.0625V29C7.0625 28.4822 7.48225 28.0625 8 28.0625C8.51775 28.0625 8.9375 28.4822 8.9375 29V31.0625C8.9375 31.5803 8.51775 32 8 32Z" fill="#5843BE"/>
<path d="M24 32C23.4822 32 23.0625 31.5803 23.0625 31.0625V29C23.0625 28.4822 23.4822 28.0625 24 28.0625C24.5178 28.0625 24.9375 28.4822 24.9375 29V31.0625C24.9375 31.5803 24.5178 32 24 32Z" fill="#5843BE"/>
<path d="M16 29.9375C15.4822 29.9375 15.0625 29.5178 15.0625 29V0.9375C15.0625 0.41975 15.4822 0 16 0C16.5178 0 16.9375 0.41975 16.9375 0.9375V29C16.9375 29.5178 16.5178 29.9375 16 29.9375Z" fill="#5843BE"/>
<path d="M28.5 21.9375H16C15.4822 21.9375 15.0625 21.5178 15.0625 21C15.0625 20.4822 15.4822 20.0625 16 20.0625H28.5C29.0178 20.0625 29.4375 20.4822 29.4375 21C29.4375 21.5178 29.0178 21.9375 28.5 21.9375Z" fill="#5843BE"/>
<path d="M23 26H21.5C20.9822 26 20.5625 25.5803 20.5625 25.0625C20.5625 24.5447 20.9822 24.125 21.5 24.125H23C23.5178 24.125 23.9375 24.5447 23.9375 25.0625C23.9375 25.5803 23.5178 26 23 26Z" fill="#5843BE"/>
<path d="M12 15.9375C11.4822 15.9375 11.0625 15.5178 11.0625 15V13.5C11.0625 12.9822 11.4822 12.5625 12 12.5625C12.5178 12.5625 12.9375 12.9822 12.9375 13.5V15C12.9375 15.5178 12.5178 15.9375 12 15.9375Z" fill="#5843BE"/>
<path d="M20 15.9375C19.4822 15.9375 19.0625 15.5178 19.0625 15V13.5C19.0625 12.9822 19.4822 12.5625 20 12.5625C20.5178 12.5625 20.9375 12.9822 20.9375 13.5V15C20.9375 15.5178 20.5178 15.9375 20 15.9375Z" fill="#5843BE"/>
</svg>
