<svg width="26" height="26" viewBox="0 0 26 26" fill="none" xmlns="http://www.w3.org/2000/svg">
<path fill-rule="evenodd" clip-rule="evenodd" d="M5.41663 5.41669C3.6217 5.41669 2.16663 6.87176 2.16663 8.66669V17.3334C2.16663 19.1283 3.6217 20.5834 5.41663 20.5834H20.5833C22.3782 20.5834 23.8333 19.1283 23.8333 17.3334V8.66669C23.8333 6.87176 22.3782 5.41669 20.5833 5.41669H5.41663ZM5.95403 7.72608C5.43455 7.42923 4.77279 7.60971 4.47595 8.12919C4.1791 8.64867 4.35958 9.31043 4.87906 9.60727L12.4624 13.9406C12.7954 14.1309 13.2043 14.1309 13.5374 13.9406L21.1207 9.60727C21.6402 9.31043 21.8207 8.64867 21.5238 8.12919C21.227 7.60971 20.5652 7.42923 20.0457 7.72608L12.9999 11.7523L5.95403 7.72608Z" fill="#989BA1"/>
</svg>
