<svg width="26" height="26" viewBox="0 0 26 26" fill="none" xmlns="http://www.w3.org/2000/svg">
<path fill-rule="evenodd" clip-rule="evenodd" d="M5.41669 5.41669C3.62176 5.41669 2.16669 6.87176 2.16669 8.66669V17.3334C2.16669 19.1283 3.62176 20.5834 5.41669 20.5834H20.5834C22.3783 20.5834 23.8334 19.1283 23.8334 17.3334V8.66669C23.8334 6.87176 22.3783 5.41669 20.5834 5.41669H5.41669ZM5.41669 9.75002C4.81838 9.75002 4.33335 10.235 4.33335 10.8334C4.33335 11.4317 4.81838 11.9167 5.41669 11.9167H20.5834C21.1817 11.9167 21.6667 11.4317 21.6667 10.8334C21.6667 10.235 21.1817 9.75002 20.5834 9.75002H5.41669ZM5.41669 14.0834C4.81838 14.0834 4.33335 14.5684 4.33335 15.1667C4.33335 15.765 4.81838 16.25 5.41669 16.25H10.8334C11.4317 16.25 11.9167 15.765 11.9167 15.1667C11.9167 14.5684 11.4317 14.0834 10.8334 14.0834H5.41669Z" fill="#989BA1"/>
</svg>
