<svg width="26" height="26" viewBox="0 0 26 26" fill="none" xmlns="http://www.w3.org/2000/svg">
<path fill-rule="evenodd" clip-rule="evenodd" d="M12.335 3.4782C12.7262 3.17393 13.274 3.17393 13.6652 3.4782L23.4152 11.0615C23.8875 11.4289 23.9725 12.1095 23.6052 12.5818C23.2379 13.054 22.5572 13.1391 22.085 12.7718L21.6667 12.4465V21.6667C21.6667 22.8633 20.6966 23.8333 19.5 23.8333H6.50002C5.3034 23.8333 4.33335 22.8633 4.33335 21.6667V12.4465L3.91517 12.7718C3.4429 13.1391 2.76226 13.054 2.39494 12.5818C2.02761 12.1095 2.11269 11.4289 2.58497 11.0615L12.335 3.4782ZM11.9167 16.25C11.3184 16.25 10.8334 16.735 10.8334 17.3333V21.6667H15.1667V17.3333C15.1667 16.735 14.6817 16.25 14.0834 16.25H11.9167Z" fill="#989BA1"/>
</svg>
