<svg width="32" height="32" viewBox="0 0 32 32" fill="none" xmlns="http://www.w3.org/2000/svg">
<path d="M31.0625 27.4375H0.9375C0.41975 27.4375 0 27.0178 0 26.5V19.875C0 18.3242 1.26169 17.0625 2.8125 17.0625H29.1875C30.7383 17.0625 32 18.3242 32 19.875V26.5C32 27.0178 31.5803 27.4375 31.0625 27.4375ZM1.875 25.5625H30.125V19.875C30.125 19.3581 29.7044 18.9375 29.1875 18.9375H2.8125C2.29556 18.9375 1.875 19.3581 1.875 19.875V25.5625Z" fill="#5843BE"/>
<path d="M5 29.9375C4.48225 29.9375 4.0625 29.5178 4.0625 29V26.5C4.0625 25.9822 4.48225 25.5625 5 25.5625C5.51775 25.5625 5.9375 25.9822 5.9375 26.5V29C5.9375 29.5178 5.51775 29.9375 5 29.9375Z" fill="#5843BE"/>
<path d="M27 29.9375C26.4822 29.9375 26.0625 29.5178 26.0625 29V26.5C26.0625 25.9822 26.4822 25.5625 27 25.5625C27.5178 25.5625 27.9375 25.9822 27.9375 26.5V29C27.9375 29.5178 27.5178 29.9375 27 29.9375Z" fill="#5843BE"/>
<path d="M14 18.9375H8C7.48225 18.9375 7.0625 18.5178 7.0625 18V13C7.0625 12.4822 7.48225 12.0625 8 12.0625H14C14.5178 12.0625 14.9375 12.4822 14.9375 13V18C14.9375 18.5178 14.5178 18.9375 14 18.9375ZM8.9375 17.0625H13.0625V13.9375H8.9375V17.0625Z" fill="#5843BE"/>
<path d="M24 18.9375H18C17.4822 18.9375 17.0625 18.5178 17.0625 18V13C17.0625 12.4822 17.4822 12.0625 18 12.0625H24C24.5178 12.0625 24.9375 12.4822 24.9375 13V18C24.9375 18.5178 24.5178 18.9375 24 18.9375ZM18.9375 17.0625H23.0625V13.9375H18.9375V17.0625Z" fill="#5843BE"/>
<path d="M29 18.9375H3C2.48225 18.9375 2.0625 18.5178 2.0625 18V16C2.0625 12.2772 3.51225 8.77719 6.14469 6.14469C8.77713 3.51219 12.2772 2.0625 16 2.0625C19.7173 2.0625 23.2143 3.50937 25.8471 6.13656C28.4848 8.76875 29.9375 12.2716 29.9375 16V18C29.9375 18.5178 29.5178 18.9375 29 18.9375ZM3.9375 17.0625H28.0625V16C28.0625 9.34875 22.6513 3.9375 16 3.9375C9.34875 3.9375 3.9375 9.34875 3.9375 16V17.0625Z" fill="#5843BE"/>
</svg>
