<svg width="26" height="26" viewBox="0 0 26 26" fill="none" xmlns="http://www.w3.org/2000/svg">
<path d="M4.12884 11.0857L8.46573 10.2067C8.76608 10.1459 9.0266 9.96062 9.18273 9.69692L12.0678 4.82435C12.4873 4.11584 13.5127 4.11584 13.9322 4.82435L16.8172 9.69692C16.9734 9.96062 17.2339 10.1459 17.5342 10.2067L21.8711 11.0857C22.7147 11.2566 23.0317 12.2957 22.4271 12.9084L18.8194 16.5641C18.5675 16.8194 18.4582 17.1829 18.5277 17.5348L19.3404 21.6525C19.5152 22.5383 18.5934 23.2367 17.7879 22.8287L13.4896 20.6509C13.1818 20.4949 12.8182 20.4949 12.5104 20.6509L8.21204 22.8287C7.40662 23.2367 6.48475 22.5383 6.65958 21.6525L7.47229 17.5348C7.54175 17.1829 7.43251 16.8194 7.18055 16.5641L3.57293 12.9084C2.96833 12.2957 3.28524 11.2566 4.12884 11.0857Z" fill="#989BA1"/>
</svg>
