<svg width="80" height="80" viewBox="0 0 80 80" fill="none" xmlns="http://www.w3.org/2000/svg">
<mask id="mask0" style="mask-type:alpha" maskUnits="userSpaceOnUse" x="0" y="0" width="80" height="80">
<rect width="80" height="80" rx="24" fill="#D8D8F8"/>
</mask>
<g mask="url(#mask0)">
<rect width="80" height="80" rx="24" fill="#D8D8F8"/>
<mask id="mask1" style="mask-type:alpha" maskUnits="userSpaceOnUse" x="-12" y="20" width="77" height="66">
<path d="M-12 20.6216H49.4595C57.7437 20.6216 64.4595 27.3373 64.4595 35.6216V86H-12V20.6216Z" fill="#7F74EB"/>
</mask>
<g mask="url(#mask1)">
<path d="M-12 20.6216H49.4595C57.7437 20.6216 64.4595 27.3373 64.4595 35.6216V86H-12V20.6216Z" fill="#7F74EB"/>
<circle cx="52.2702" cy="27.2703" r="15.5135" fill="#665CC6"/>
</g>
<path d="M13.7297 46.3378H38.6622" stroke="white" stroke-width="3" stroke-linecap="round" stroke-linejoin="round"/>
<path opacity="0.4" d="M13.7297 54.6486H27.027" stroke="white" stroke-width="3" stroke-linecap="round" stroke-linejoin="round"/>
<path opacity="0.4" d="M13.7297 62.4054H50.2973" stroke="white" stroke-width="3" stroke-linecap="round" stroke-linejoin="round"/>
<circle cx="55.5946" cy="23.9459" r="14.4054" fill="#3A3379"/>
<path d="M50.9029 19.444C51.9429 19.444 52.8069 19.708 53.4949 20.236C54.1829 20.764 54.6469 21.48 54.8869 22.384H53.4349C53.2349 21.872 52.9149 21.468 52.4749 21.172C52.0429 20.868 51.5109 20.716 50.8789 20.716C50.3749 20.716 49.9229 20.84 49.5229 21.088C49.1309 21.336 48.8189 21.692 48.5869 22.156C48.3629 22.612 48.2509 23.148 48.2509 23.764C48.2509 24.372 48.3629 24.908 48.5869 25.372C48.8189 25.828 49.1309 26.18 49.5229 26.428C49.9229 26.676 50.3749 26.8 50.8789 26.8C51.5109 26.8 52.0429 26.652 52.4749 26.356C52.9149 26.052 53.2349 25.648 53.4349 25.144H54.8869C54.6469 26.048 54.1829 26.764 53.4949 27.292C52.8069 27.812 51.9429 28.072 50.9029 28.072C50.1029 28.072 49.3949 27.892 48.7789 27.532C48.1629 27.164 47.6869 26.656 47.3509 26.008C47.0149 25.352 46.8469 24.604 46.8469 23.764C46.8469 22.924 47.0149 22.18 47.3509 21.532C47.6869 20.876 48.1629 20.364 48.7789 19.996C49.3949 19.628 50.1029 19.444 50.9029 19.444ZM60.1278 19.456C61.1358 19.456 61.9758 19.704 62.6478 20.2C63.3198 20.696 63.7638 21.372 63.9798 22.228H62.5398C62.3558 21.772 62.0518 21.408 61.6278 21.136C61.2118 20.864 60.7158 20.728 60.1398 20.728C59.6118 20.728 59.1358 20.852 58.7118 21.1C58.2958 21.348 57.9678 21.7 57.7278 22.156C57.4958 22.612 57.3798 23.148 57.3798 23.764C57.3798 24.412 57.4998 24.968 57.7398 25.432C57.9798 25.896 58.3158 26.252 58.7478 26.5C59.1878 26.74 59.6958 26.86 60.2718 26.86C60.9758 26.86 61.5798 26.644 62.0838 26.212C62.5878 25.772 62.8918 25.172 62.9958 24.412H59.8878V23.404H64.1478V24.712C64.0518 25.336 63.8278 25.904 63.4758 26.416C63.1318 26.92 62.6718 27.324 62.0958 27.628C61.5278 27.932 60.8758 28.084 60.1398 28.084C59.3158 28.084 58.5878 27.9 57.9558 27.532C57.3238 27.164 56.8358 26.656 56.4918 26.008C56.1478 25.352 55.9758 24.604 55.9758 23.764C55.9758 22.924 56.1478 22.18 56.4918 21.532C56.8358 20.876 57.3198 20.368 57.9438 20.008C58.5758 19.64 59.3038 19.456 60.1278 19.456Z" fill="white"/>
</g>
</svg>
