<svg width="26" height="26" viewBox="0 0 26 26" fill="none" xmlns="http://www.w3.org/2000/svg">
<path fill-rule="evenodd" clip-rule="evenodd" d="M13.64 23.2896C15.4683 21.6584 20.5833 16.5162 20.5833 10.0455C20.5833 6.10608 18.2135 2.16669 13 2.16669C7.78642 2.16669 5.41663 6.10608 5.41663 10.0455C5.41663 16.5162 10.5316 21.6584 12.3599 23.2896C12.7302 23.6201 13.2697 23.6201 13.64 23.2896ZM13 13C14.7949 13 16.25 11.5449 16.25 9.75002C16.25 7.95509 14.7949 6.50002 13 6.50002C11.205 6.50002 9.74996 7.95509 9.74996 9.75002C9.74996 11.5449 11.205 13 13 13Z" fill="#989BA1"/>
</svg>
