<svg width="32" height="32" viewBox="0 0 32 32" fill="none" xmlns="http://www.w3.org/2000/svg">
<g clip-path="url(#clip0)">
<path d="M30.9999 1.87499H1.00006C0.482309 1.87499 0.062561 1.45524 0.062561 0.937496C0.062561 0.419748 0.482309 0 1.00006 0H30.9999C31.5177 0 31.9374 0.419748 31.9374 0.937496C31.9374 1.45524 31.5177 1.87499 30.9999 1.87499Z" fill="#5843BE"/>
<path d="M16.0001 6.9375H3.00006C2.48231 6.9375 2.06256 6.51775 2.06256 6V0.9375C2.06256 0.41975 2.48231 0 3.00006 0H16.0001C16.5178 0 16.9376 0.41975 16.9376 0.9375V6C16.9376 6.51775 16.5178 6.9375 16.0001 6.9375ZM3.93756 5.0625H15.0626V1.875H3.93756V5.0625Z" fill="#5843BE"/>
<path d="M29.0001 6.9375H16.0001C15.4823 6.9375 15.0626 6.51775 15.0626 6V0.9375C15.0626 0.41975 15.4823 0 16.0001 0H29.0001C29.5178 0 29.9376 0.41975 29.9376 0.9375V6C29.9376 6.51775 29.5178 6.9375 29.0001 6.9375ZM16.9376 5.0625H28.0626V1.875H16.9376V5.0625Z" fill="#5843BE"/>
<path d="M8.50007 15.4375H4.50006C3.98231 15.4375 3.56256 15.0178 3.56256 14.5V12C3.56256 10.3802 4.88031 9.0625 6.50006 9.0625C8.11982 9.0625 9.43757 10.3802 9.43757 12V14.5C9.43757 15.0178 9.01782 15.4375 8.50007 15.4375ZM5.43756 13.5625H7.56257V12C7.56257 11.4141 7.08594 10.9375 6.50006 10.9375C5.91419 10.9375 5.43756 11.4141 5.43756 12V13.5625Z" fill="#5843BE"/>
<path d="M6.50006 10.9375C5.98231 10.9375 5.56256 10.5178 5.56256 10V6C5.56256 5.48225 5.98231 5.0625 6.50006 5.0625C7.01781 5.0625 7.43756 5.48225 7.43756 6V10C7.43756 10.5178 7.01781 10.9375 6.50006 10.9375Z" fill="#5843BE"/>
<path d="M27.5 15.4375H23.5C22.9822 15.4375 22.5625 15.0177 22.5625 14.5V12C22.5625 10.3802 23.8802 9.06247 25.5 9.06247C27.1198 9.06247 28.4375 10.3802 28.4375 12V14.5C28.4375 15.0177 28.0178 15.4375 27.5 15.4375ZM24.4375 13.5625H26.5625V12C26.5625 11.4141 26.0859 10.9375 25.5 10.9375C24.9141 10.9375 24.4375 11.4141 24.4375 12V13.5625Z" fill="#5843BE"/>
<path d="M25.4999 10.9375C24.9821 10.9375 24.5624 10.5177 24.5624 9.99996V5.99997C24.5624 5.48222 24.9821 5.06247 25.4999 5.06247C26.0176 5.06247 26.4374 5.48222 26.4374 5.99997V9.99996C26.4374 10.5177 26.0176 10.9375 25.4999 10.9375Z" fill="#5843BE"/>
<path d="M18.0001 15.4375H14.0001C13.4823 15.4375 13.0626 15.0178 13.0626 14.5V12C13.0626 10.3802 14.3803 9.0625 16.0001 9.0625C17.6198 9.0625 18.9376 10.3802 18.9376 12V14.5C18.9376 15.0178 18.5178 15.4375 18.0001 15.4375ZM14.9376 13.5625H17.0626V12C17.0626 11.4141 16.5859 10.9375 16.0001 10.9375C15.4142 10.9375 14.9376 11.4141 14.9376 12V13.5625Z" fill="#5843BE"/>
<path d="M16.0001 10.9375C15.4823 10.9375 15.0626 10.5178 15.0626 10V6C15.0626 5.48225 15.4823 5.0625 16.0001 5.0625C16.5178 5.0625 16.9376 5.48225 16.9376 6V10C16.9376 10.5178 16.5178 10.9375 16.0001 10.9375Z" fill="#5843BE"/>
<path d="M29 31.9999C28.4822 31.9999 28.0625 31.5802 28.0625 31.0624V19.9374H3.93755V31.0624C3.93755 31.5802 3.51781 31.9999 3.00006 31.9999C2.48231 31.9999 2.06256 31.5802 2.06256 31.0624V18.9999C2.06256 18.4822 2.48231 18.0624 3.00006 18.0624H29C29.5177 18.0624 29.9375 18.4822 29.9375 18.9999V31.0624C29.9375 31.5802 29.5177 31.9999 29 31.9999Z" fill="#5843BE"/>
<path d="M30.9999 19.9374H1.00006C0.482309 19.9374 0.062561 19.5177 0.062561 18.9999C0.062561 18.4822 0.482309 18.0624 1.00006 18.0624H30.9999C31.5177 18.0624 31.9374 18.4822 31.9374 18.9999C31.9374 19.5177 31.5177 19.9374 30.9999 19.9374Z" fill="#5843BE"/>
<path d="M13.4989 32.0001C13.0326 32.0001 12.6285 31.6525 12.5697 31.1779L11.6717 23.9374H8.82848L7.93042 31.1779C7.86667 31.6917 7.39823 32.0567 6.88467 31.9928C6.37086 31.9291 6.00592 31.4609 6.06967 30.9471L7.06967 22.8846C7.12792 22.415 7.52686 22.0625 8.00004 22.0625H12.5C12.9732 22.0625 13.3722 22.4151 13.4304 22.8846L14.4304 30.9471C14.4942 31.461 14.1293 31.9292 13.6154 31.9928C13.5763 31.9977 13.5374 32.0001 13.4989 32.0001V32.0001Z" fill="#5843BE"/>
<path d="M12.9925 27.8749H7.50812C6.99037 27.8749 6.57062 27.4551 6.57062 26.9374C6.57062 26.4196 6.99037 25.9999 7.50812 25.9999H12.9925C13.5102 25.9999 13.93 26.4196 13.93 26.9374C13.93 27.4551 13.5102 27.8749 12.9925 27.8749Z" fill="#5843BE"/>
<path d="M13.5 23.9374H7C6.48225 23.9374 6.0625 23.5177 6.0625 22.9999C6.0625 22.4822 6.48225 22.0624 7 22.0624H13.5C14.0178 22.0624 14.4375 22.4822 14.4375 22.9999C14.4375 23.5177 14.0178 23.9374 13.5 23.9374Z" fill="#5843BE"/>
<path d="M24.9989 32.0001C24.5325 32.0001 24.1285 31.6525 24.0697 31.1779L23.1716 23.9374H20.3285L19.4304 31.1779C19.3667 31.6917 18.899 32.0568 18.3847 31.9928C17.8709 31.9291 17.506 31.4609 17.5697 30.9471L18.5697 22.8846C18.628 22.415 19.0269 22.0625 19.5001 22.0625H24.0001C24.4732 22.0625 24.8722 22.4151 24.9305 22.8846L25.9305 30.9471C25.9942 31.461 25.6294 31.9292 25.1155 31.9928C25.0763 31.9977 25.0374 32.0001 24.9989 32.0001Z" fill="#5843BE"/>
<path d="M24.4924 27.8749H19.0081C18.4903 27.8749 18.0706 27.4551 18.0706 26.9374C18.0706 26.4196 18.4903 25.9999 19.0081 25.9999H24.4924C25.0102 25.9999 25.4299 26.4196 25.4299 26.9374C25.4299 27.4551 25.0102 27.8749 24.4924 27.8749Z" fill="#5843BE"/>
<path d="M25 23.9374H18.5C17.9822 23.9374 17.5625 23.5177 17.5625 22.9999C17.5625 22.4822 17.9822 22.0624 18.5 22.0624H25C25.5178 22.0624 25.9375 22.4822 25.9375 22.9999C25.9375 23.5177 25.5178 23.9374 25 23.9374Z" fill="#5843BE"/>
</g>
<defs>
<clipPath id="clip0">
<rect width="32" height="32" fill="white"/>
</clipPath>
</defs>
</svg>
